<svg width="290" height="36" viewBox="0 0 290 36" fill="none" xmlns="http://www.w3.org/2000/svg">
<path d="M59.1729 19.7568H50.7354V25.4697H60.6377V29H46.3408V7.67188H60.6084V11.2314H50.7354V16.3145H59.1729V19.7568ZM71.1699 21.5732H62.9229V18.1602H71.1699V21.5732ZM81.1602 25.8799C81.9414 25.8799 82.5762 25.665 83.0645 25.2354C83.5527 24.8057 83.8066 24.2344 83.8262 23.5215H87.7959C87.7861 24.5957 87.4932 25.582 86.917 26.4805C86.3408 27.3691 85.5498 28.0625 84.5439 28.5605C83.5479 29.0488 82.4443 29.293 81.2334 29.293C78.9678 29.293 77.1807 28.5752 75.8721 27.1396C74.5635 25.6943 73.9092 23.7021 73.9092 21.1631V20.8848C73.9092 18.4434 74.5586 16.4951 75.8574 15.04C77.1562 13.585 78.9385 12.8574 81.2041 12.8574C83.1865 12.8574 84.7734 13.4238 85.9648 14.5566C87.166 15.6797 87.7764 17.1787 87.7959 19.0537H83.8262C83.8066 18.2334 83.5527 17.5693 83.0645 17.0615C82.5762 16.5439 81.9316 16.2852 81.1309 16.2852C80.1445 16.2852 79.3975 16.6465 78.8896 17.3691C78.3916 18.082 78.1426 19.2441 78.1426 20.8555V21.2949C78.1426 22.9258 78.3916 24.0977 78.8896 24.8105C79.3877 25.5234 80.1445 25.8799 81.1602 25.8799ZM89.5537 20.9287C89.5537 19.3564 89.8564 17.9551 90.4619 16.7246C91.0674 15.4941 91.9365 14.542 93.0693 13.8682C94.2119 13.1943 95.5352 12.8574 97.0391 12.8574C99.1777 12.8574 100.921 13.5117 102.269 14.8203C103.626 16.1289 104.383 17.9062 104.539 20.1523L104.568 21.2363C104.568 23.668 103.89 25.6211 102.532 27.0957C101.175 28.5605 99.3535 29.293 97.0684 29.293C94.7832 29.293 92.957 28.5605 91.5898 27.0957C90.2324 25.6309 89.5537 23.6387 89.5537 21.1191V20.9287ZM93.7871 21.2363C93.7871 22.7402 94.0703 23.8926 94.6367 24.6934C95.2031 25.4844 96.0137 25.8799 97.0684 25.8799C98.0938 25.8799 98.8945 25.4893 99.4707 24.708C100.047 23.917 100.335 22.6572 100.335 20.9287C100.335 19.4541 100.047 18.3115 99.4707 17.501C98.8945 16.6904 98.084 16.2852 97.0391 16.2852C96.0039 16.2852 95.2031 16.6904 94.6367 17.501C94.0703 18.3018 93.7871 19.5469 93.7871 21.2363ZM111.146 13.1504L111.277 14.9229C112.4 13.5459 113.919 12.8574 115.833 12.8574C117.874 12.8574 119.275 13.6631 120.037 15.2744C121.15 13.6631 122.737 12.8574 124.798 12.8574C126.517 12.8574 127.796 13.3604 128.636 14.3662C129.476 15.3623 129.896 16.8662 129.896 18.8779V29H125.647V18.8926C125.647 17.9941 125.472 17.3398 125.12 16.9297C124.769 16.5098 124.148 16.2998 123.26 16.2998C121.99 16.2998 121.111 16.9053 120.623 18.1162L120.638 29H116.404V18.9072C116.404 17.9893 116.224 17.3252 115.862 16.915C115.501 16.5049 114.886 16.2998 114.017 16.2998C112.815 16.2998 111.946 16.7979 111.409 17.7939V29H107.176V13.1504H111.146ZM137.132 13.1504L137.264 14.9229C138.387 13.5459 139.905 12.8574 141.819 12.8574C143.86 12.8574 145.262 13.6631 146.023 15.2744C147.137 13.6631 148.724 12.8574 150.784 12.8574C152.503 12.8574 153.782 13.3604 154.622 14.3662C155.462 15.3623 155.882 16.8662 155.882 18.8779V29H151.634V18.8926C151.634 17.9941 151.458 17.3398 151.106 16.9297C150.755 16.5098 150.135 16.2998 149.246 16.2998C147.977 16.2998 147.098 16.9053 146.609 18.1162L146.624 29H142.391V18.9072C142.391 17.9893 142.21 17.3252 141.849 16.915C141.487 16.5049 140.872 16.2998 140.003 16.2998C138.802 16.2998 137.933 16.7979 137.396 17.7939V29H133.162V13.1504H137.132ZM166.443 29.293C164.119 29.293 162.225 28.5801 160.76 27.1543C159.305 25.7285 158.577 23.8291 158.577 21.4561V21.0459C158.577 19.4541 158.885 18.0332 159.5 16.7832C160.115 15.5234 160.984 14.5566 162.107 13.8828C163.24 13.1992 164.529 12.8574 165.975 12.8574C168.143 12.8574 169.847 13.541 171.087 14.9082C172.337 16.2754 172.962 18.2139 172.962 20.7236V22.4521H162.869C163.006 23.4873 163.416 24.3174 164.1 24.9424C164.793 25.5674 165.667 25.8799 166.722 25.8799C168.353 25.8799 169.627 25.2891 170.545 24.1074L172.625 26.4365C171.99 27.335 171.131 28.0381 170.047 28.5459C168.963 29.0439 167.762 29.293 166.443 29.293ZM165.96 16.2852C165.12 16.2852 164.437 16.5684 163.909 17.1348C163.392 17.7012 163.06 18.5117 162.913 19.5664H168.802V19.2295C168.782 18.292 168.528 17.5693 168.04 17.0615C167.552 16.5439 166.858 16.2852 165.96 16.2852ZM184.285 17.1201C183.709 17.042 183.201 17.0029 182.762 17.0029C181.16 17.0029 180.11 17.5449 179.612 18.6289V29H175.379V13.1504H179.378L179.495 15.04C180.345 13.585 181.521 12.8574 183.025 12.8574C183.494 12.8574 183.934 12.9209 184.344 13.0479L184.285 17.1201ZM192.635 25.8799C193.416 25.8799 194.051 25.665 194.539 25.2354C195.027 24.8057 195.281 24.2344 195.301 23.5215H199.271C199.261 24.5957 198.968 25.582 198.392 26.4805C197.815 27.3691 197.024 28.0625 196.019 28.5605C195.022 29.0488 193.919 29.293 192.708 29.293C190.442 29.293 188.655 28.5752 187.347 27.1396C186.038 25.6943 185.384 23.7021 185.384 21.1631V20.8848C185.384 18.4434 186.033 16.4951 187.332 15.04C188.631 13.585 190.413 12.8574 192.679 12.8574C194.661 12.8574 196.248 13.4238 197.439 14.5566C198.641 15.6797 199.251 17.1787 199.271 19.0537H195.301C195.281 18.2334 195.027 17.5693 194.539 17.0615C194.051 16.5439 193.406 16.2852 192.605 16.2852C191.619 16.2852 190.872 16.6465 190.364 17.3691C189.866 18.082 189.617 19.2441 189.617 20.8555V21.2949C189.617 22.9258 189.866 24.0977 190.364 24.8105C190.862 25.5234 191.619 25.8799 192.635 25.8799ZM208.982 29.293C206.658 29.293 204.764 28.5801 203.299 27.1543C201.844 25.7285 201.116 23.8291 201.116 21.4561V21.0459C201.116 19.4541 201.424 18.0332 202.039 16.7832C202.654 15.5234 203.523 14.5566 204.646 13.8828C205.779 13.1992 207.068 12.8574 208.514 12.8574C210.682 12.8574 212.386 13.541 213.626 14.9082C214.876 16.2754 215.501 18.2139 215.501 20.7236V22.4521H205.408C205.545 23.4873 205.955 24.3174 206.639 24.9424C207.332 25.5674 208.206 25.8799 209.261 25.8799C210.892 25.8799 212.166 25.2891 213.084 24.1074L215.164 26.4365C214.529 27.335 213.67 28.0381 212.586 28.5459C211.502 29.0439 210.301 29.293 208.982 29.293ZM208.499 16.2852C207.659 16.2852 206.976 16.5684 206.448 17.1348C205.931 17.7012 205.599 18.5117 205.452 19.5664H211.341V19.2295C211.321 18.292 211.067 17.5693 210.579 17.0615C210.091 16.5439 209.397 16.2852 208.499 16.2852ZM240.843 11.2314H234.31V29H229.915V11.2314H223.47V7.67188H240.843V11.2314ZM239.378 20.9287C239.378 19.3564 239.681 17.9551 240.286 16.7246C240.892 15.4941 241.761 14.542 242.894 13.8682C244.036 13.1943 245.359 12.8574 246.863 12.8574C249.002 12.8574 250.745 13.5117 252.093 14.8203C253.45 16.1289 254.207 17.9062 254.363 20.1523L254.393 21.2363C254.393 23.668 253.714 25.6211 252.356 27.0957C250.999 28.5605 249.178 29.293 246.893 29.293C244.607 29.293 242.781 28.5605 241.414 27.0957C240.057 25.6309 239.378 23.6387 239.378 21.1191V20.9287ZM243.611 21.2363C243.611 22.7402 243.895 23.8926 244.461 24.6934C245.027 25.4844 245.838 25.8799 246.893 25.8799C247.918 25.8799 248.719 25.4893 249.295 24.708C249.871 23.917 250.159 22.6572 250.159 20.9287C250.159 19.4541 249.871 18.3115 249.295 17.501C248.719 16.6904 247.908 16.2852 246.863 16.2852C245.828 16.2852 245.027 16.6904 244.461 17.501C243.895 18.3018 243.611 19.5469 243.611 21.2363ZM262.068 9.25391V13.1504H264.778V16.2559H262.068V24.166C262.068 24.752 262.181 25.1719 262.405 25.4258C262.63 25.6797 263.06 25.8066 263.694 25.8066C264.163 25.8066 264.578 25.7725 264.939 25.7041V28.9121C264.109 29.166 263.255 29.293 262.376 29.293C259.407 29.293 257.894 27.7939 257.835 24.7959V16.2559H255.521V13.1504H257.835V9.25391H262.068ZM276.321 29C276.126 28.6191 275.984 28.1455 275.896 27.5791C274.871 28.7217 273.538 29.293 271.897 29.293C270.345 29.293 269.056 28.8438 268.03 27.9453C267.015 27.0469 266.507 25.9141 266.507 24.5469C266.507 22.8672 267.127 21.5781 268.367 20.6797C269.617 19.7812 271.419 19.3271 273.772 19.3174H275.721V18.4092C275.721 17.6768 275.53 17.0908 275.149 16.6514C274.778 16.2119 274.188 15.9922 273.377 15.9922C272.664 15.9922 272.103 16.1631 271.692 16.5049C271.292 16.8467 271.092 17.3154 271.092 17.9111H266.858C266.858 16.9932 267.142 16.1436 267.708 15.3623C268.274 14.5811 269.075 13.9707 270.11 13.5312C271.146 13.082 272.308 12.8574 273.597 12.8574C275.55 12.8574 277.098 13.3506 278.24 14.3369C279.393 15.3135 279.969 16.6904 279.969 18.4678V25.3379C279.979 26.8418 280.188 27.9795 280.599 28.751V29H276.321ZM272.82 26.0557C273.445 26.0557 274.021 25.9189 274.549 25.6455C275.076 25.3623 275.467 24.9863 275.721 24.5176V21.793H274.139C272.02 21.793 270.892 22.5254 270.755 23.9902L270.74 24.2393C270.74 24.7666 270.926 25.2012 271.297 25.543C271.668 25.8848 272.176 26.0557 272.82 26.0557ZM287.688 29H283.44V6.5H287.688V29Z" fill="black"/>
<path d="M9 3L4.5 9V30C4.5 30.7957 4.81607 31.5587 5.37868 32.1213C5.94129 32.6839 6.70435 33 7.5 33H28.5C29.2956 33 30.0587 32.6839 30.6213 32.1213C31.1839 31.5587 31.5 30.7957 31.5 30V9L27 3H9Z" stroke="black" stroke-width="2" stroke-linecap="round" stroke-linejoin="round"/>
<path d="M4.5 9H31.5" stroke="black" stroke-width="2" stroke-linecap="round" stroke-linejoin="round"/>
<path d="M24 15C24 16.5913 23.3679 18.1174 22.2426 19.2426C21.1174 20.3679 19.5913 21 18 21C16.4087 21 14.8826 20.3679 13.7574 19.2426C12.6321 18.1174 12 16.5913 12 15" stroke="black" stroke-width="2" stroke-linecap="round" stroke-linejoin="round"/>
</svg>
